<mxfile host="app.diagrams.net" agent="Mozilla/5.0 (Windows NT 10.0; Win64; x64) AppleWebKit/537.36 (KHTML, like Gecko) Chrome/135.0.0.0 Safari/537.36" version="26.2.14">
  <diagram name="Page-1" id="fZ6_6-qFtuJXSLZ6WzMS">
    <mxGraphModel dx="1251" dy="660" grid="1" gridSize="10" guides="1" tooltips="1" connect="1" arrows="1" fold="1" page="1" pageScale="1" pageWidth="850" pageHeight="1100" math="0" shadow="0">
      <root>
        <mxCell id="0" />
        <mxCell id="1" parent="0" />
        <mxCell id="1VImnYT1DYLdbbFBoMaT-2" value="" style="rounded=0;whiteSpace=wrap;html=1;fillColor=#f9f7ed;strokeColor=#36393d;" vertex="1" parent="1">
          <mxGeometry x="370" y="130" width="230" height="510" as="geometry" />
        </mxCell>
        <mxCell id="1VImnYT1DYLdbbFBoMaT-3" value="" style="rounded=0;whiteSpace=wrap;html=1;" vertex="1" parent="1">
          <mxGeometry x="180" y="130" width="140" height="490" as="geometry" />
        </mxCell>
        <mxCell id="1VImnYT1DYLdbbFBoMaT-8" value="&lt;b&gt;Catalogue&lt;/b&gt;" style="rounded=1;whiteSpace=wrap;html=1;fillColor=#f5f5f5;gradientColor=#b3b3b3;strokeColor=#666666;" vertex="1" parent="1">
          <mxGeometry x="430" y="160" width="100" height="60" as="geometry" />
        </mxCell>
        <mxCell id="1VImnYT1DYLdbbFBoMaT-9" value="&lt;b&gt;User&lt;/b&gt;" style="rounded=1;whiteSpace=wrap;html=1;fillColor=#dae8fc;gradientColor=#7ea6e0;strokeColor=#6c8ebf;" vertex="1" parent="1">
          <mxGeometry x="430" y="240" width="100" height="60" as="geometry" />
        </mxCell>
        <mxCell id="1VImnYT1DYLdbbFBoMaT-10" value="&lt;b&gt;Cart&lt;/b&gt;" style="rounded=1;whiteSpace=wrap;html=1;fillColor=#d5e8d4;gradientColor=#97d077;strokeColor=#82b366;" vertex="1" parent="1">
          <mxGeometry x="430" y="320" width="100" height="60" as="geometry" />
        </mxCell>
        <mxCell id="1VImnYT1DYLdbbFBoMaT-11" value="&lt;b&gt;Shipping&lt;/b&gt;" style="rounded=1;whiteSpace=wrap;html=1;fillColor=#ffcd28;gradientColor=#ffa500;strokeColor=#d79b00;" vertex="1" parent="1">
          <mxGeometry x="430" y="400" width="100" height="60" as="geometry" />
        </mxCell>
        <mxCell id="1VImnYT1DYLdbbFBoMaT-12" value="&lt;b&gt;Payment&lt;/b&gt;" style="rounded=1;whiteSpace=wrap;html=1;fillColor=#f8cecc;gradientColor=#ea6b66;strokeColor=#b85450;" vertex="1" parent="1">
          <mxGeometry x="430" y="480" width="100" height="60" as="geometry" />
        </mxCell>
        <mxCell id="1VImnYT1DYLdbbFBoMaT-13" value="&lt;b&gt;Dispatch&lt;/b&gt;" style="rounded=1;whiteSpace=wrap;html=1;fillColor=#fff2cc;gradientColor=#ffd966;strokeColor=#d6b656;" vertex="1" parent="1">
          <mxGeometry x="430" y="560" width="100" height="60" as="geometry" />
        </mxCell>
        <mxCell id="1VImnYT1DYLdbbFBoMaT-14" value="&lt;b&gt;Frontend&lt;/b&gt;" style="rounded=1;whiteSpace=wrap;html=1;fillColor=#e6d0de;gradientColor=#d5739d;strokeColor=#996185;" vertex="1" parent="1">
          <mxGeometry x="200" y="320" width="100" height="60" as="geometry" />
        </mxCell>
        <mxCell id="1VImnYT1DYLdbbFBoMaT-15" value="&lt;b&gt;&lt;font face=&quot;Comic Sans MS&quot;&gt;Backend Tier&lt;/font&gt;&lt;/b&gt;" style="text;html=1;align=center;verticalAlign=middle;resizable=0;points=[];autosize=1;strokeColor=none;fillColor=none;" vertex="1" parent="1">
          <mxGeometry x="430" y="130" width="100" height="30" as="geometry" />
        </mxCell>
        <mxCell id="1VImnYT1DYLdbbFBoMaT-17" value="&lt;b&gt;Web&lt;/b&gt;" style="text;html=1;align=center;verticalAlign=middle;resizable=0;points=[];autosize=1;strokeColor=none;fillColor=none;" vertex="1" parent="1">
          <mxGeometry x="225" y="130" width="50" height="30" as="geometry" />
        </mxCell>
        <mxCell id="1VImnYT1DYLdbbFBoMaT-19" value="" style="group" vertex="1" connectable="0" parent="1">
          <mxGeometry x="680" y="130" width="210" height="510" as="geometry" />
        </mxCell>
        <mxCell id="1VImnYT1DYLdbbFBoMaT-1" value="" style="rounded=0;whiteSpace=wrap;html=1;fillColor=#eeeeee;strokeColor=#36393d;" vertex="1" parent="1VImnYT1DYLdbbFBoMaT-19">
          <mxGeometry width="210" height="510" as="geometry" />
        </mxCell>
        <mxCell id="1VImnYT1DYLdbbFBoMaT-18" value="" style="group" vertex="1" connectable="0" parent="1VImnYT1DYLdbbFBoMaT-19">
          <mxGeometry x="55" width="100" height="456.875" as="geometry" />
        </mxCell>
        <mxCell id="1VImnYT1DYLdbbFBoMaT-4" value="&lt;b&gt;&lt;font style=&quot;color: rgb(127, 0, 255);&quot;&gt;MongoDB&lt;/font&gt;&lt;/b&gt;" style="rounded=1;whiteSpace=wrap;html=1;fillColor=#d5e8d4;gradientColor=#97d077;strokeColor=#82b366;" vertex="1" parent="1VImnYT1DYLdbbFBoMaT-18">
          <mxGeometry y="53.125" width="100" height="63.75" as="geometry" />
        </mxCell>
        <mxCell id="1VImnYT1DYLdbbFBoMaT-5" value="&lt;b&gt;&lt;font style=&quot;color: rgb(0, 102, 0);&quot;&gt;Redis&lt;/font&gt;&lt;/b&gt;" style="rounded=1;whiteSpace=wrap;html=1;fillColor=#fff2cc;gradientColor=#ffd966;strokeColor=#d6b656;" vertex="1" parent="1VImnYT1DYLdbbFBoMaT-18">
          <mxGeometry y="159.375" width="100" height="63.75" as="geometry" />
        </mxCell>
        <mxCell id="1VImnYT1DYLdbbFBoMaT-6" value="&lt;b&gt;&lt;font style=&quot;color: rgb(0, 76, 153);&quot;&gt;MySQL&lt;/font&gt;&lt;/b&gt;" style="rounded=1;whiteSpace=wrap;html=1;fillColor=#dae8fc;gradientColor=#7ea6e0;strokeColor=#6c8ebf;" vertex="1" parent="1VImnYT1DYLdbbFBoMaT-18">
          <mxGeometry y="276.25" width="100" height="63.75" as="geometry" />
        </mxCell>
        <mxCell id="1VImnYT1DYLdbbFBoMaT-7" value="&lt;b&gt;&lt;font style=&quot;color: rgb(127, 0, 255);&quot;&gt;RabbitMQ&lt;/font&gt;&lt;/b&gt;" style="rounded=1;whiteSpace=wrap;html=1;fillColor=#ffcd28;gradientColor=#ffa500;strokeColor=#d79b00;" vertex="1" parent="1VImnYT1DYLdbbFBoMaT-18">
          <mxGeometry y="393.125" width="100" height="63.75" as="geometry" />
        </mxCell>
        <mxCell id="1VImnYT1DYLdbbFBoMaT-16" value="&lt;b&gt;&lt;font style=&quot;color: rgb(227, 36, 255);&quot; face=&quot;Comic Sans MS&quot;&gt;DB Tier&lt;/font&gt;&lt;/b&gt;" style="text;html=1;align=center;verticalAlign=middle;resizable=0;points=[];autosize=1;strokeColor=none;fillColor=none;" vertex="1" parent="1VImnYT1DYLdbbFBoMaT-18">
          <mxGeometry x="10" width="70" height="30" as="geometry" />
        </mxCell>
      </root>
    </mxGraphModel>
  </diagram>
</mxfile>
